<svg width="82" height="100" xmlns="http://www.w3.org/2000/svg" xmlns:xlink="http://www.w3.org/1999/xlink" xml:space="preserve" overflow="hidden"><g transform="translate(-1162 -600)"><g><g><g><g><path d="M0 58.7679 6.17619 58.7679 6.17619 48.0522 6.23892 48.0522 12.7402 58.7679 19.0931 58.7679 19.0931 39.1558 12.917 39.1558 12.917 49.649 12.8599 49.649 6.68374 39.1558 0 39.1558 0 58.7679Z" fill="#FFFFFF" fill-rule="nonzero" fill-opacity="1" transform="matrix(1.00574 0 0 1 1163 601.162)"/><path d="M29.5122 51.7648 31.5596 45.7197 31.6166 45.7197 33.5157 51.7648 29.5065 51.7648ZM20.5759 58.7679 27.1399 58.7679C27.1399 58.7679 28.0922 55.9678 28.0922 55.9678L34.833 55.9678C34.833 55.9678 35.7227 58.7679 35.7227 58.7679L42.4919 58.7679C42.4919 58.7679 34.7703 39.1558 34.7703 39.1558L28.3831 39.1558C28.3831 39.1558 20.5759 58.7679 20.5759 58.7679Z" fill="#FFFFFF" fill-rule="evenodd" fill-opacity="1" transform="matrix(1.00574 0 0 1 1163 601.162)"/><path d="M46.8774 58.7679 53.4129 58.7679 53.4129 44.1857 59.3496 44.1857 59.3496 39.1558 40.9408 39.1558 40.9408 44.18 46.8774 44.18 46.8774 58.7679Z" fill="#FFFFFF" fill-rule="nonzero" fill-opacity="1" transform="matrix(1.00574 0 0 1 1163 601.162)"/><path d="M66.5694 51.7648 68.6167 45.7197 68.6737 45.7197 70.5728 51.7648 66.5637 51.7648ZM57.6273 58.7679 64.1913 58.7679C64.1913 58.7679 65.1437 55.9678 65.1437 55.9678L71.8844 55.9678C71.8844 55.9678 72.7741 58.7679 72.7741 58.7679L79.5434 58.7679C79.5434 58.7679 71.8217 39.1558 71.8217 39.1558L65.4345 39.1558C65.4345 39.1558 57.6273 58.7679 57.6273 58.7679Z" fill="#FFFFFF" fill-rule="evenodd" fill-opacity="1" transform="matrix(1.00574 0 0 1 1163 601.162)"/><path d="M7.42511 32.6887 47.7899 0 74.2625 32.6887 64.0829 32.6887 46.6208 11.1263 19.9999 32.6887 7.42511 32.6887Z" fill="#F7921E" fill-rule="nonzero" fill-opacity="1" transform="matrix(1.00574 0 0 1 1163 601.162)"/><path d="M69.5976 65.8736 29.0902 98.6764 2.52066 65.8736 12.706 65.8736 30.2593 87.5444 57.0228 65.8736 69.5976 65.8736Z" fill="#F7921E" fill-rule="nonzero" fill-opacity="1" transform="matrix(1.00574 0 0 1 1163 601.162)"/></g></g></g></g></g></svg>